<?xml version="1.0" encoding="utf-8"?>
<!-- Generator: Adobe Illustrator 18.1.1, SVG Export Plug-In . SVG Version: 6.00 Build 0)  -->
<svg version="1.1" id="Layer_1" xmlns="http://www.w3.org/2000/svg" xmlns:xlink="http://www.w3.org/1999/xlink" x="0px" y="0px"
	 width="28.9px" height="28.9px" viewBox="0 0 28.9 28.9" enable-background="new 0 0 28.9 28.9" xml:space="preserve">
<g>
	<polygon fill="#FFFFFF" points="8.1,9.7 8.1,11.3 14.5,15.3 20.8,11.3 20.8,9.7 14.5,13.7 	"/>
	<path fill="#FFFFFF" d="M14.5,0C6.5,0,0,6.5,0,14.5c0,8,6.5,14.5,14.5,14.5s14.5-6.5,14.5-14.5C28.9,6.5,22.5,0,14.5,0z M22.4,19.2
		c0,0.9-0.7,1.6-1.6,1.6H8.1c-0.9,0-1.6-0.7-1.6-1.6l0-9.5c0-0.9,0.7-1.6,1.6-1.6h12.7c0.9,0,1.6,0.7,1.6,1.6V19.2z"/>
</g>
</svg>
