<?xml version="1.0" encoding="utf-8"?>
<!-- Generator: Adobe Illustrator 18.1.1, SVG Export Plug-In . SVG Version: 6.00 Build 0)  -->
<svg version="1.1" id="Layer_1" xmlns="http://www.w3.org/2000/svg" xmlns:xlink="http://www.w3.org/1999/xlink" x="0px" y="0px"
	 width="28.9px" height="28.9px" viewBox="0 0 28.9 28.9" enable-background="new 0 0 28.9 28.9" xml:space="preserve">
<path fill="#FFFFFF" d="M14.5,0C6.5,0,0,6.5,0,14.5c0,8,6.5,14.5,14.5,14.5c8,0,14.5-6.5,14.5-14.5C28.9,6.5,22.4,0,14.5,0z
	 M19.5,6.1c0.3,0.6,0.5,1.7,0.2,2.5c1.1,1,1.5,3.3,1,5.2c1.6,0.1,3.5-0.1,4.7,0.4c-1.1-0.1-2.7-0.4-4.2-0.3c-0.3,0-0.7,0-0.7,0.4
	c1.7,0.1,3.4,0.3,4.8,0.7c-1.4-0.2-3.1-0.6-4.8-0.6c-0.7,1.4-2.2,2.1-4.1,2.2c0.2,0.5,0.6,0.6,0.7,1.4c0.1,1.1-0.2,2.7,0.1,3.5
	c0.2,0.4,0.5,0.4,0.7,0.7c-0.5,0.6-1.7-0.1-1.8-0.7c-0.2-1,0.4-2.6-0.3-3.3c0,1.1-0.3,2.7,0,3.7c0.1,0.4,0.5,0.6,0.4,0.9
	c-2.3,0.2-1.3-2.9-1.7-4.8c-0.3,0-0.2,0.5-0.2,0.7c0,1.8,0.4,4.3-1.6,4.1c-0.1-0.4,0.3-0.5,0.4-0.9c0.4-1-0.1-2.5,0.1-3.8
	c-0.7,0.6,0.1,2.5-0.4,3.5c-0.3,0.6-1.1,0.8-1.8,0.6c0.1-0.4,0.5-0.4,0.7-0.8c0.3-0.6,0-1.4,0.1-2.2c-1.4,0.3-2.5,0-3-0.9
	c-0.2-0.4-0.3-0.9-0.6-1.2c-0.3-0.3-0.7-0.4-0.9-0.9c1.7-0.4,1.8,1.8,3.3,1.8c0.5,0,0.7-0.1,1.2-0.2c0.1-0.5,0.4-1,0.8-1.2
	c-1.9-0.3-3.5-0.9-4.2-2.3c-1.7,0.1-3.3,0.3-4.8,0.7c1.3-0.5,3-0.7,4.8-0.7c-0.1-0.6-1-0.5-1.6-0.4c-1.1,0-2.4,0.2-3.2,0.3
	c1.2-0.4,2.9-0.4,4.6-0.4c-0.5-1.6-0.3-4.1,0.8-5C8.6,8,8.7,6.7,9.1,6.1c1.2,0.1,2,0.6,2.7,1.1c1-0.3,2-0.4,3.3-0.3
	c0.6,0,1.1,0.3,1.5,0.2c0.4,0,0.9-0.5,1.3-0.7C18.4,6.2,18.9,6.2,19.5,6.1z"/>
<g>
</g>
<g>
</g>
<g>
</g>
<g>
</g>
<g>
</g>
<g>
</g>
<g>
</g>
<g>
</g>
<g>
</g>
<g>
</g>
<g>
</g>
<g>
</g>
<g>
</g>
<g>
</g>
<g>
</g>
</svg>
