<?xml version="1.0" encoding="utf-8"?>
<!-- Generator: Adobe Illustrator 18.1.1, SVG Export Plug-In . SVG Version: 6.00 Build 0)  -->
<svg version="1.1" id="Layer_1" xmlns="http://www.w3.org/2000/svg" xmlns:xlink="http://www.w3.org/1999/xlink" x="0px" y="0px"
	 width="28.9px" height="28.9px" viewBox="0 0 28.9 28.9" enable-background="new 0 0 28.9 28.9" xml:space="preserve">
<g>
	<path fill="#FFFFFF" d="M15.4,13.3L15.4,13.3C15.4,13.3,15.4,13.3,15.4,13.3L15.4,13.3z"/>
	<path fill="#FFFFFF" d="M14.5,0C6.5,0,0,6.5,0,14.5c0,8,6.5,14.5,14.5,14.5s14.5-6.5,14.5-14.5C28.9,6.5,22.5,0,14.5,0z M10.1,22.1
		H6.6V11.8h3.4V22.1z M8.4,10.4L8.4,10.4c-1.2,0-1.9-0.8-1.9-1.8c0-1,0.8-1.8,2-1.8s1.9,0.8,1.9,1.8C10.3,9.6,9.6,10.4,8.4,10.4z
		 M22.5,22.1h-3.4v-5.5c0-1.4-0.5-2.3-1.7-2.3c-1,0-1.5,0.6-1.8,1.3c-0.1,0.2-0.1,0.5-0.1,0.8v5.8H12c0,0,0-9.4,0-10.4h3.4v1.5
		c0.5-0.7,1.3-1.7,3.1-1.7c2.3,0,4,1.5,4,4.7V22.1z"/>
</g>
</svg>
