<?xml version="1.0" encoding="utf-8"?>
<!-- Generator: Adobe Illustrator 18.1.1, SVG Export Plug-In . SVG Version: 6.00 Build 0)  -->
<svg version="1.1" id="Layer_1" xmlns="http://www.w3.org/2000/svg" xmlns:xlink="http://www.w3.org/1999/xlink" x="0px" y="0px"
	 width="28.9px" height="28.9px" viewBox="0 0 28.9 28.9" enable-background="new 0 0 28.9 28.9" xml:space="preserve">
<path fill="#FFFFFF" d="M14.5,0C6.5,0,0,6.5,0,14.5c0,8,6.5,14.5,14.5,14.5c8,0,14.5-6.5,14.5-14.5C28.9,6.5,22.4,0,14.5,0z
	 M20.9,11.2c0,0.1,0,0.3,0,0.4c0,4.4-3.3,9.5-9.5,9.5c-1.9,0-3.6-0.5-5.1-1.5c0.3,0,0.5,0,0.8,0c1.6,0,3-0.5,4.1-1.4
	c-1.5,0-2.7-1-3.1-2.3c0.2,0,0.4,0.1,0.6,0.1c0.3,0,0.6,0,0.9-0.1C8.1,15.5,7,14.2,7,12.6c0,0,0,0,0,0c0.4,0.2,1,0.4,1.5,0.4
	C7.6,12.3,7,11.3,7,10.2C7,9.5,7.2,9,7.5,8.5c1.6,2,4.1,3.3,6.9,3.5c-0.1-0.2-0.1-0.5-0.1-0.8c0-1.8,1.5-3.3,3.3-3.3
	c1,0,1.8,0.4,2.4,1.1c0.8-0.1,1.5-0.4,2.1-0.8c-0.3,0.8-0.8,1.4-1.5,1.8c0.7-0.1,1.3-0.3,1.9-0.5C22.1,10.1,21.6,10.7,20.9,11.2z"/>
<g>
</g>
<g>
</g>
<g>
</g>
<g>
</g>
<g>
</g>
<g>
</g>
<g>
</g>
<g>
</g>
<g>
</g>
<g>
</g>
<g>
</g>
<g>
</g>
<g>
</g>
<g>
</g>
<g>
</g>
</svg>
